<svg width="20" height="20" viewBox="0 0 20 20" fill="none" xmlns="http://www.w3.org/2000/svg">
<g clip-path="url(#clip0_180_2719)">
<path d="M12.1083 7.89161L7.89161 12.1083C7.33245 11.5491 7.01831 10.7907 7.01831 9.99994C7.01831 9.60839 7.09543 9.22067 7.24527 8.85892C7.39512 8.49717 7.61474 8.16848 7.89161 7.89161C8.16848 7.61474 8.49717 7.39512 8.85892 7.24527C9.22067 7.09543 9.60839 7.01831 9.99994 7.01831C10.7907 7.01831 11.5491 7.33245 12.1083 7.89161Z" stroke="#727482" stroke-width="1.5" stroke-linecap="round" stroke-linejoin="round"/>
<path d="M14.85 4.80828C13.3917 3.70828 11.725 3.10828 9.99999 3.10828C7.05832 3.10828 4.31666 4.84161 2.40833 7.84161C1.65833 9.01661 1.65833 10.9916 2.40833 12.1666C3.06666 13.1999 3.83332 14.0916 4.66666 14.8083M7.01666 16.2749C7.96666 16.6749 8.97499 16.8916 9.99999 16.8916C12.9417 16.8916 15.6833 15.1583 17.5917 12.1583C18.3417 10.9833 18.3417 9.00828 17.5917 7.83328C17.3167 7.39994 17.0167 6.99161 16.7083 6.60828" stroke="#727482" stroke-width="1.5" stroke-linecap="round" stroke-linejoin="round"/>
<path d="M12.925 10.5833C12.8121 11.1646 12.528 11.6989 12.1093 12.1176C11.6906 12.5364 11.1563 12.8204 10.575 12.9333M7.89163 12.1083L1.66663 18.3333M18.3333 1.66663L12.1083 7.89163" stroke="#727482" stroke-width="1.5" stroke-linecap="round" stroke-linejoin="round"/>
</g>
<defs>
<clipPath id="clip0_180_2719">
<rect width="20" height="20" fill="white"/>
</clipPath>
</defs>
</svg>
